<?xml version="1.0" encoding="UTF-8"?>
<svg version="1.1" xmlns="http://www.w3.org/2000/svg" width="96" height="96">
<path d="M0 0 C1.98 0 3.96 0 6 0 C6.17015625 0.99 6.3403125 1.98 6.515625 3 C7.96197056 11.58910336 7.96197056 11.58910336 11.1875 19.625 C13.0332088 23.06183707 13 24.29602105 13 28 C15.59653145 31.78660837 18.35399411 32.52984721 22.73828125 33.4375 C25.23640725 34.05879559 27.450781 34.97871611 29.8125 36 C35.08596408 38.19796015 40.36500965 39.18581888 46 40 C46 41.98 46 43.96 46 46 C45.04480469 46.14695313 44.08960937 46.29390625 43.10546875 46.4453125 C31.66583495 48.42985515 21.90014029 51.44907571 14.42578125 60.95703125 C9.03059489 68.68766814 7.57263777 76.8501075 6 86 C4.02 86 2.04 86 0 86 C0.01160156 84.97519531 0.02320313 83.95039062 0.03515625 82.89453125 C0.04454022 81.533856 0.05363977 80.17317876 0.0625 78.8125 C0.07506836 77.80219727 0.07506836 77.80219727 0.08789062 76.77148438 C0.10606538 73.04565869 -0.10700608 69.6211958 -1 66 C-1.70125 66 -2.4025 66 -3.125 66 C-6.42425857 64.8524318 -6.84244143 64.10989735 -8.75 61.3125 C-15.01429828 52.34973477 -24.62126072 48.73694654 -35 46.8125 C-36.66543177 46.53417377 -38.33171353 46.26066976 -40 46 C-40 44.02 -40 42.04 -40 40 C-39.04480469 39.85304687 -38.08960938 39.70609375 -37.10546875 39.5546875 C-25.66583495 37.57014485 -15.90014029 34.55092429 -8.42578125 25.04296875 C-3.03059489 17.31233186 -1.57263777 9.1498925 0 0 Z " fill="#C1E0FD" transform="translate(45,5)"/>
<path d="M0 0 C1.98 0 3.96 0 6 0 C6.17015625 0.99 6.3403125 1.98 6.515625 3 C7.96207243 11.60234889 7.96207243 11.60234889 11.25 19.625 C13 23 13 23 12.75 26 C12.5025 26.66 12.255 27.32 12 28 C9.6875 27.8125 9.6875 27.8125 7 27 C4 22.96551724 4 22.96551724 4 20 C3.34 20 2.68 20 2 20 C1.75378906 20.886875 1.50757813 21.77375 1.25390625 22.6875 C-1.95248788 31.15797423 -10.09115042 37.8867294 -18 42 C-18.66 42 -19.32 42 -20 42 C-20 42.66 -20 43.32 -20 44 C-19.11570312 44.24105469 -18.23140625 44.48210938 -17.3203125 44.73046875 C-13.70894622 46.11128527 -11.68872884 47.6884112 -8.875 50.3125 C-8.04742187 51.07175781 -7.21984375 51.83101562 -6.3671875 52.61328125 C-0.09441714 58.93780714 -0.09441714 58.93780714 0.25 62.8125 C0.1675 63.534375 0.085 64.25625 0 65 C-2.475 65.495 -2.475 65.495 -5 66 C-5.40089844 65.41992188 -5.80179688 64.83984375 -6.21484375 64.2421875 C-14.47945727 52.88537164 -24.36121929 48.59044841 -37.875 46.33203125 C-38.57625 46.22246094 -39.2775 46.11289062 -40 46 C-40 44.02 -40 42.04 -40 40 C-39.04480469 39.85304687 -38.08960938 39.70609375 -37.10546875 39.5546875 C-25.66583495 37.57014485 -15.90014029 34.55092429 -8.42578125 25.04296875 C-3.03059489 17.31233186 -1.57263777 9.1498925 0 0 Z " fill="#2F9BFE" transform="translate(45,5)"/>
<path d="M0 0 C4.32091373 0.37573163 7.75764017 1.22193324 11.75 2.9375 C17.04913765 5.17944285 22.32551288 6.18011213 28 7 C28 8.98 28 10.96 28 13 C27.04480469 13.14695312 26.08960938 13.29390625 25.10546875 13.4453125 C13.66583495 15.42985515 3.90014029 18.44907571 -3.57421875 27.95703125 C-8.96940511 35.68766814 -10.42736223 43.8501075 -12 53 C-13.98 53 -15.96 53 -18 53 C-19.08398457 42.03971155 -16.40473062 33.01898733 -9.87890625 24.1015625 C-5.55226869 19.10755797 -0.72559311 14.37768802 5 11 C5.66 11 6.32 11 7 11 C7 10.34 7 9.68 7 9 C6.236875 8.71125 5.47375 8.4225 4.6875 8.125 C2 7 2 7 -1 5 C-0.67 3.35 -0.34 1.7 0 0 Z " fill="#309BFD" transform="translate(63,38)"/>
</svg>
